<?xml version="1.0" encoding="UTF-8" standalone="no"?>
<!-- Created with Inkscape (http://www.inkscape.org/) -->

<svg
   version="1.1"
   id="svg118"
   width="512"
   height="512"
   viewBox="0 0 512 512"
   sodipodi:docname="sphere.svg"
   inkscape:version="1.2.1 (9c6d41e, 2022-07-14)"
   xmlns:inkscape="http://www.inkscape.org/namespaces/inkscape"
   xmlns:sodipodi="http://sodipodi.sourceforge.net/DTD/sodipodi-0.dtd"
   xmlns="http://www.w3.org/2000/svg"
   xmlns:svg="http://www.w3.org/2000/svg">
  <defs
     id="defs122" />
  <sodipodi:namedview
     id="namedview120"
     pagecolor="#ffffff"
     bordercolor="#000000"
     borderopacity="0.25"
     inkscape:showpageshadow="2"
     inkscape:pageopacity="0.0"
     inkscape:pagecheckerboard="0"
     inkscape:deskcolor="#d1d1d1"
     showgrid="false"
     inkscape:zoom="0.4609375"
     inkscape:cx="-6.5084746"
     inkscape:cy="256"
     inkscape:window-width="1440"
     inkscape:window-height="900"
     inkscape:window-x="0"
     inkscape:window-y="0"
     inkscape:window-maximized="0"
     inkscape:current-layer="g124" />
  <g
     inkscape:groupmode="layer"
     inkscape:label="Image"
     id="g124">
    <path
       style="fill:#008080"
       d="m 248.75594,510.48858 c -23.97887,-9.03567 -43.10606,-64.00055 -51.20597,-147.14812 -0.85726,-8.8 -1.76994,-17.59188 -2.02817,-19.53752 l -0.46951,-3.53751 46.37196,0.40879 c 94.86362,0.83629 164.79783,-6.05917 216.79921,-21.37622 17.87854,-5.26614 37.77439,-13.76031 46.09209,-19.67819 1.54416,-1.09864 3.06553,-1.73957 3.38081,-1.42429 1.00418,1.00417 -4.69837,24.6733 -9.20477,38.20552 -12.87803,38.67136 -33.78851,72.13673 -63.38333,101.43942 -20.46418,20.26218 -41.93275,35.50987 -67.60029,48.01192 -32.46447,15.81269 -65.23079,24.07334 -101.14632,25.49981 -10.59311,0.42073 -14.73675,0.21747 -17.60571,-0.86361 z m -45.74797,-4.63225 C 154.39921,495.36155 110.74491,471.58348 75.445746,436.37444 46.873666,407.8753 25.631106,373.42249 13.115486,335.28244 8.9100956,322.46696 3.3771456,299.13794 4.3195656,298.19552 c 0.31529,-0.31528 1.83665,0.32565 3.38082,1.42429 11.3542004,8.07829 40.1247804,19.05277 64.8075804,24.72072 26.20634,6.01781 66.467004,11.71977 96.990104,13.73632 l 3.9901,0.26361 1.2254,15 c 5.28795,64.72944 18.38525,119.28726 35.33359,147.1848 2.17845,3.58579 3.96081,6.69863 3.96081,6.91741 0,0.64434 -2.01216,0.35416 -11,-1.58634 z m 7.77063,-186.99378 c -8.65115,-0.35612 -16.01878,-0.9369 -16.3725,-1.29062 -2.11449,-2.1145 -2.97297,-68.53586 -1.37301,-106.23146 4.90954,-115.670402 23.89383,-191.845702 51.91736,-208.3206521 4.43392,-2.60669002 4.96431,-2.67539002 19.55752,-2.53304002 24.89932,0.24287 54.37042,5.76433002 79,14.80079012 12.35687,4.53367 37.45334,16.76637 47.5,23.15278 32.11317,20.41357 61.98655,50.28694 82.40011,82.400122 6.30815,9.92353 18.60426,35.09982 22.99674,47.08585 9.1539,24.97877 14.71382,54.4995 14.95684,79.41415 0.14305,14.66606 0.0854,15.10353 -2.58789,19.65109 -16.41402,27.92167 -92.76981,46.92164 -208.2658,51.82378 -25.60361,1.08672 -63.98623,1.10692 -89.72937,0.0472 z m -58.27063,-4.02666 C 68.609576,306.05493 16.363836,289.31294 3.2512056,267.007 0.58186562,262.46618 0.51112562,261.94982 0.62546562,247.84047 c 0.14192,-17.51164 2.27370998,-33.61563 7.01595998,-53 C 28.378756,110.07476 92.252876,40.998798 175.44739,13.368548 c 13.4491,-4.4666701 37.22998,-10.1920201 38.22029,-9.2017101 0.30716,0.30716 -0.34042,1.82189 -1.43906,3.36605 -5.91788,8.3177001 -14.41205,28.2135501 -19.67819,46.0920901 -15.31847,52.006192 -22.21252,121.933962 -21.37603,216.821362 0.2794,31.69305 0.0802,46.35842 -0.62872,46.28146 -0.57074,-0.062 -8.68771,-0.91333 -18.03771,-1.89191 z"
       id="path355" />
  </g>
</svg>
